<svg width="162" height="27" viewBox="0 0 162 27" fill="none" xmlns="http://www.w3.org/2000/svg">
<path d="M10.8403 21L5.69228 5.6H7.95828L12.6883 19.812H11.5443L16.4503 5.6H18.4743L23.2703 19.812H22.1703L26.9663 5.6H29.0563L23.9083 21H21.5983L17.1103 7.822H17.7043L13.1943 21H10.8403ZM35.5526 21.132C34.3793 21.132 33.338 20.8753 32.4286 20.362C31.5193 19.8487 30.8006 19.1447 30.2726 18.25C29.7446 17.3407 29.4806 16.314 29.4806 15.17C29.4806 14.0113 29.7446 12.9847 30.2726 12.09C30.8006 11.1953 31.5193 10.4987 32.4286 10C33.338 9.48667 34.3793 9.23 35.5526 9.23C36.7113 9.23 37.7453 9.48667 38.6546 10C39.5786 10.4987 40.2973 11.1953 40.8106 12.09C41.3386 12.97 41.6026 13.9967 41.6026 15.17C41.6026 16.3287 41.3386 17.3553 40.8106 18.25C40.2973 19.1447 39.5786 19.8487 38.6546 20.362C37.7453 20.8753 36.7113 21.132 35.5526 21.132ZM35.5526 19.284C36.3006 19.284 36.968 19.1153 37.5546 18.778C38.156 18.4407 38.6253 17.964 38.9626 17.348C39.3 16.7173 39.4686 15.9913 39.4686 15.17C39.4686 14.334 39.3 13.6153 38.9626 13.014C38.6253 12.398 38.156 11.9213 37.5546 11.584C36.968 11.2467 36.3006 11.078 35.5526 11.078C34.8046 11.078 34.1373 11.2467 33.5506 11.584C32.964 11.9213 32.4946 12.398 32.1426 13.014C31.7906 13.6153 31.6146 14.334 31.6146 15.17C31.6146 15.9913 31.7906 16.7173 32.1426 17.348C32.4946 17.964 32.964 18.4407 33.5506 18.778C34.1373 19.1153 34.8046 19.284 35.5526 19.284ZM44.5235 21V9.34H46.5475V12.508L46.3495 11.716C46.6722 10.9093 47.2148 10.2933 47.9775 9.868C48.7402 9.44267 49.6788 9.23 50.7935 9.23V11.276C50.7055 11.2613 50.6175 11.254 50.5295 11.254C50.4562 11.254 50.3828 11.254 50.3095 11.254C49.1802 11.254 48.2855 11.5913 47.6255 12.266C46.9655 12.9407 46.6355 13.916 46.6355 15.192V21H44.5235ZM55.1125 18.184L55.1565 15.478L61.8665 9.34H64.4185L59.2705 14.4L58.1265 15.368L55.1125 18.184ZM53.3965 21V4.676H55.5085V21H53.3965ZM62.3065 21L57.7305 15.324L59.0945 13.63L64.9025 21H62.3065ZM77.2394 21.176C76.198 21.176 75.274 21.0073 74.4674 20.67C73.6607 20.3327 73.0227 19.8633 72.5534 19.262C72.084 18.6607 71.8494 17.964 71.8494 17.172C71.8494 16.4827 72.0034 15.852 72.3114 15.28C72.6194 14.708 73.1107 14.158 73.7854 13.63C74.46 13.0873 75.3474 12.53 76.4474 11.958C77.342 11.4887 78.0387 11.078 78.5374 10.726C79.0507 10.374 79.41 10.044 79.6154 9.736C79.8354 9.41333 79.9454 9.06867 79.9454 8.702C79.9454 8.20333 79.7694 7.8 79.4174 7.492C79.0654 7.16933 78.5594 7.008 77.8994 7.008C77.21 7.008 76.6674 7.184 76.2714 7.536C75.89 7.87333 75.6994 8.32067 75.6994 8.878C75.6994 9.15667 75.7434 9.428 75.8314 9.692C75.934 9.94133 76.11 10.2273 76.3594 10.55C76.6234 10.858 76.9974 11.254 77.4814 11.738L85.6214 19.834L84.4334 21.242L75.7874 12.64C75.274 12.1267 74.8707 11.672 74.5774 11.276C74.284 10.8653 74.0714 10.4693 73.9394 10.088C73.8074 9.70667 73.7414 9.318 73.7414 8.922C73.7414 8.23267 73.91 7.63133 74.2474 7.118C74.5994 6.59 75.0834 6.18667 75.6994 5.908C76.33 5.61467 77.0634 5.468 77.8994 5.468C78.6767 5.468 79.3514 5.6 79.9234 5.864C80.4954 6.11333 80.9354 6.48 81.2434 6.964C81.566 7.43333 81.7274 8.00533 81.7274 8.68C81.7274 9.26667 81.5807 9.80933 81.2874 10.308C81.0087 10.8067 80.554 11.2907 79.9234 11.76C79.2927 12.2293 78.442 12.7353 77.3714 13.278C76.4914 13.7327 75.802 14.158 75.3034 14.554C74.8047 14.9353 74.4454 15.3167 74.2254 15.698C74.02 16.0793 73.9174 16.4973 73.9174 16.952C73.9174 17.436 74.0567 17.8687 74.3354 18.25C74.6287 18.6167 75.032 18.9027 75.5454 19.108C76.0734 19.3133 76.682 19.416 77.3714 19.416C78.354 19.416 79.2414 19.2033 80.0334 18.778C80.8254 18.3527 81.4854 17.7147 82.0134 16.864C82.556 16.0133 82.952 14.9573 83.2014 13.696L84.8954 14.246C84.602 15.7273 84.096 16.9813 83.3774 18.008C82.6734 19.0347 81.8007 19.8193 80.7594 20.362C79.718 20.9047 78.5447 21.176 77.2394 21.176ZM97.2176 21V7.514H91.9376V5.6H104.676V7.514H99.3956V21H97.2176ZM106.484 21V9.34H108.508V12.508L108.31 11.716C108.633 10.9093 109.176 10.2933 109.938 9.868C110.701 9.44267 111.64 9.23 112.754 9.23V11.276C112.666 11.2613 112.578 11.254 112.49 11.254C112.417 11.254 112.344 11.254 112.27 11.254C111.141 11.254 110.246 11.5913 109.586 12.266C108.926 12.9407 108.596 13.916 108.596 15.192V21H106.484ZM121.736 21V18.536L121.626 18.074V13.872C121.626 12.9773 121.362 12.288 120.834 11.804C120.321 11.3053 119.543 11.056 118.502 11.056C117.813 11.056 117.138 11.1733 116.478 11.408C115.818 11.628 115.261 11.9287 114.806 12.31L113.926 10.726C114.527 10.242 115.246 9.87533 116.082 9.626C116.933 9.362 117.82 9.23 118.744 9.23C120.343 9.23 121.575 9.61867 122.44 10.396C123.305 11.1733 123.738 12.3613 123.738 13.96V21H121.736ZM117.908 21.132C117.043 21.132 116.28 20.9853 115.62 20.692C114.975 20.3987 114.476 19.9953 114.124 19.482C113.772 18.954 113.596 18.36 113.596 17.7C113.596 17.0693 113.743 16.4973 114.036 15.984C114.344 15.4707 114.835 15.06 115.51 14.752C116.199 14.444 117.123 14.29 118.282 14.29H121.978V15.808H118.37C117.314 15.808 116.603 15.984 116.236 16.336C115.869 16.688 115.686 17.1133 115.686 17.612C115.686 18.184 115.913 18.646 116.368 18.998C116.823 19.3353 117.453 19.504 118.26 19.504C119.052 19.504 119.741 19.328 120.328 18.976C120.929 18.624 121.362 18.1107 121.626 17.436L122.044 18.888C121.765 19.5773 121.274 20.1273 120.57 20.538C119.866 20.934 118.979 21.132 117.908 21.132ZM130.49 21L125.386 9.34H127.586L132.118 19.9H131.062L135.682 9.34H137.75L132.646 21H130.49ZM144.59 21.132C143.344 21.132 142.244 20.8753 141.29 20.362C140.352 19.8487 139.618 19.1447 139.09 18.25C138.577 17.3553 138.32 16.3287 138.32 15.17C138.32 14.0113 138.57 12.9847 139.068 12.09C139.582 11.1953 140.278 10.4987 141.158 10C142.053 9.48667 143.058 9.23 144.172 9.23C145.302 9.23 146.299 9.47933 147.164 9.978C148.03 10.4767 148.704 11.1807 149.188 12.09C149.687 12.9847 149.936 14.0333 149.936 15.236C149.936 15.324 149.929 15.4267 149.914 15.544C149.914 15.6613 149.907 15.7713 149.892 15.874H139.97V14.356H148.792L147.934 14.884C147.949 14.136 147.795 13.4687 147.472 12.882C147.15 12.2953 146.702 11.8407 146.13 11.518C145.573 11.1807 144.92 11.012 144.172 11.012C143.439 11.012 142.786 11.1807 142.214 11.518C141.642 11.8407 141.195 12.3027 140.872 12.904C140.55 13.4907 140.388 14.1653 140.388 14.928V15.28C140.388 16.0573 140.564 16.754 140.916 17.37C141.283 17.9713 141.789 18.4407 142.434 18.778C143.08 19.1153 143.82 19.284 144.656 19.284C145.346 19.284 145.969 19.1667 146.526 18.932C147.098 18.6973 147.597 18.3453 148.022 17.876L149.188 19.24C148.66 19.856 148 20.3253 147.208 20.648C146.431 20.9707 145.558 21.132 144.59 21.132ZM152.869 21V4.676H154.981V21H152.869Z" fill="white"/>
</svg>
